<svg width="92" height="35" viewBox="0 0 92 35" fill="none" xmlns="http://www.w3.org/2000/svg">
<path d="M17.5438 24.371C21.3635 24.371 24.4601 21.2866 24.4601 17.4821C24.4601 13.6775 21.3635 10.5932 17.5438 10.5932C13.724 10.5932 10.6275 13.6775 10.6275 17.4821C10.6275 21.2866 13.724 24.371 17.5438 24.371Z" stroke="white" stroke-width="3.00625" stroke-linecap="round" stroke-linejoin="round"/>
<path d="M2 24.3889V10.6111C2 5.85533 5.8707 2 10.6454 2H24.4781C29.2528 2 33.1236 5.85533 33.1236 10.6111V24.3889C33.1236 29.1446 29.2528 33 24.4781 33H10.6454C5.8707 33 2 29.1446 2 24.3889Z" stroke="white" stroke-width="3.00625"/>
<path d="M27.0718 8.04502L27.09 8.02588" stroke="white" stroke-width="3.00625" stroke-linecap="round" stroke-linejoin="round"/>
<path d="M90 2.01734C90 2.01734 86.7555 4.07258 84.9514 4.65511C83.983 3.46123 82.6961 2.61505 81.2646 2.23098C79.8331 1.84694 78.3263 1.94354 76.9477 2.50774C75.5691 3.07195 74.3853 4.07652 73.5566 5.3856C72.7277 6.69469 72.2939 8.24511 72.3137 9.8272V11.5512C69.4881 11.6298 66.6883 10.9578 64.1636 9.59521C61.6388 8.23259 59.4676 6.22161 57.8431 3.74137C57.8431 3.74137 51.4118 19.2577 65.8824 26.1538C62.571 28.5638 58.6264 29.7724 54.6274 29.6019C69.098 38.222 86.7843 29.6019 86.7843 9.77547C86.7829 9.29525 86.7398 8.81621 86.6557 8.34453C88.2967 6.60928 90 2.01734 90 2.01734Z" stroke="white" stroke-width="2.45966" stroke-linecap="round" stroke-linejoin="round"/>
</svg>
