<svg width="218" height="68" viewBox="0 0 218 68" fill="none" xmlns="http://www.w3.org/2000/svg">
<g filter="url(#filter0_d_615_263)">
<circle cx="34" cy="30" r="30" fill="#F2F2F2"/>
</g>
<path d="M33.4844 45H20.2188V43.7344H23.9688V18.1406H20.2188V16.875H33.4844V18.1406H29.7344V30.4219L43.2344 18.1406H39.4844V16.875H48.1094C48.0469 17.4688 47.625 17.8906 46.8438 18.1406C46.625 18.1406 46.3906 18.1719 46.1406 18.2344C45.4844 18.3594 44.5156 19.0312 43.2344 20.25L35.6875 27.1406L47.4062 43.7344H48.1094C48.7656 43.7969 49.1875 44.2188 49.375 45L41.1719 45.0469L31.5625 30.9375L29.7344 32.5781V43.7344H32.2188C32.875 43.7969 33.2969 44.2188 33.4844 45Z" fill="#455470"/>
<path d="M33.4844 45H20.2188V43.7344H23.9688V18.1406H20.2188V16.875H33.4844V18.1406H29.7344V30.4219L43.2344 18.1406H39.4844V16.875H48.1094C48.0469 17.4688 47.625 17.8906 46.8438 18.1406C46.625 18.1406 46.3906 18.1719 46.1406 18.2344C45.4844 18.3594 44.5156 19.0312 43.2344 20.25L35.6875 27.1406L47.4062 43.7344H48.1094C48.7656 43.7969 49.1875 44.2188 49.375 45L41.1719 45.0469L31.5625 30.9375L29.7344 32.5781V43.7344H32.2188C32.875 43.7969 33.2969 44.2188 33.4844 45Z" fill="#455470"/>
<path d="M33.4844 45H20.2188V43.7344H23.9688V18.1406H20.2188V16.875H33.4844V18.1406H29.7344V30.4219L43.2344 18.1406H39.4844V16.875H48.1094C48.0469 17.4688 47.625 17.8906 46.8438 18.1406C46.625 18.1406 46.3906 18.1719 46.1406 18.2344C45.4844 18.3594 44.5156 19.0312 43.2344 20.25L35.6875 27.1406L47.4062 43.7344H48.1094C48.7656 43.7969 49.1875 44.2188 49.375 45L41.1719 45.0469L31.5625 30.9375L29.7344 32.5781V43.7344H32.2188C32.875 43.7969 33.2969 44.2188 33.4844 45Z" fill="#6D609E"/>
<path d="M79.904 34.5V14.9H83.488V22.824L90.74 14.9H95.164L87.94 22.684L95.36 34.5H90.964L85.364 25.428L83.488 27.472V34.5H79.904ZM96.5542 34.5L103.722 14.9H107.754L114.922 34.5H111.114L109.546 29.964H101.902L100.306 34.5H96.5542ZM102.882 27.164H108.566L105.71 19.016L102.882 27.164ZM117.447 34.5V14.9H121.031V23.048H129.823V14.9H133.407V34.5H129.823V25.96H121.031V34.5H117.447ZM137.217 34.5V14.9H140.801V31.7H149.481V34.5H137.217ZM160.045 34.836C158.085 34.836 156.368 34.4067 154.893 33.548C153.437 32.6893 152.289 31.504 151.449 29.992C150.628 28.4613 150.217 26.6973 150.217 24.7C150.217 22.7027 150.628 20.948 151.449 19.436C152.289 17.9053 153.437 16.7107 154.893 15.852C156.368 14.9933 158.085 14.564 160.045 14.564C161.986 14.564 163.694 14.9933 165.169 15.852C166.644 16.7107 167.792 17.9053 168.613 19.436C169.434 20.948 169.845 22.7027 169.845 24.7C169.845 26.6973 169.434 28.4613 168.613 29.992C167.792 31.504 166.644 32.6893 165.169 33.548C163.694 34.4067 161.986 34.836 160.045 34.836ZM160.045 31.616C161.912 31.616 163.396 31 164.497 29.768C165.617 28.536 166.177 26.8467 166.177 24.7C166.177 22.5533 165.617 20.864 164.497 19.632C163.396 18.4 161.912 17.784 160.045 17.784C158.178 17.784 156.685 18.4 155.565 19.632C154.445 20.864 153.885 22.5533 153.885 24.7C153.885 26.8467 154.445 28.536 155.565 29.768C156.685 31 158.178 31.616 160.045 31.616Z" fill="#6D609E"/>
<path d="M81.96 54.62C81.26 54.62 80.6467 54.4667 80.12 54.16C79.6 53.8533 79.19 53.43 78.89 52.89C78.5967 52.3433 78.45 51.7133 78.45 51C78.45 50.2867 78.5967 49.66 78.89 49.12C79.19 48.5733 79.6 48.1467 80.12 47.84C80.6467 47.5333 81.26 47.38 81.96 47.38C82.6533 47.38 83.2633 47.5333 83.79 47.84C84.3167 48.1467 84.7267 48.5733 85.02 49.12C85.3133 49.66 85.46 50.2867 85.46 51C85.46 51.7133 85.3133 52.3433 85.02 52.89C84.7267 53.43 84.3167 53.8533 83.79 54.16C83.2633 54.4667 82.6533 54.62 81.96 54.62ZM81.96 53.47C82.6267 53.47 83.1567 53.25 83.55 52.81C83.95 52.37 84.15 51.7667 84.15 51C84.15 50.2333 83.95 49.63 83.55 49.19C83.1567 48.75 82.6267 48.53 81.96 48.53C81.2933 48.53 80.76 48.75 80.36 49.19C79.96 49.63 79.76 50.2333 79.76 51C79.76 51.7667 79.96 52.37 80.36 52.81C80.76 53.25 81.2933 53.47 81.96 53.47ZM86.5602 54.5V49.54H87.6902L87.7902 50.38C87.9435 50.0867 88.1635 49.8533 88.4502 49.68C88.7435 49.5067 89.0868 49.42 89.4802 49.42C90.0935 49.42 90.5702 49.6133 90.9102 50C91.2502 50.3867 91.4202 50.9533 91.4202 51.7V54.5H90.1402V51.82C90.1402 51.3933 90.0535 51.0667 89.8802 50.84C89.7068 50.6133 89.4368 50.5 89.0702 50.5C88.7102 50.5 88.4135 50.6267 88.1802 50.88C87.9535 51.1333 87.8402 51.4867 87.8402 51.94V54.5H86.5602ZM94.9241 54.62C94.4575 54.62 94.0408 54.5067 93.6741 54.28C93.3075 54.0533 93.0175 53.7433 92.8041 53.35C92.5908 52.9567 92.4841 52.51 92.4841 52.01C92.4841 51.51 92.5908 51.0667 92.8041 50.68C93.0175 50.2867 93.3075 49.98 93.6741 49.76C94.0408 49.5333 94.4575 49.42 94.9241 49.42C95.2975 49.42 95.6241 49.49 95.9041 49.63C96.1841 49.77 96.4108 49.9667 96.5841 50.22V47.3H97.8641V54.5H96.7241L96.5841 53.79C96.4241 54.01 96.2108 54.2033 95.9441 54.37C95.6841 54.5367 95.3441 54.62 94.9241 54.62ZM95.1941 53.5C95.6075 53.5 95.9441 53.3633 96.2041 53.09C96.4708 52.81 96.6041 52.4533 96.6041 52.02C96.6041 51.5867 96.4708 51.2333 96.2041 50.96C95.9441 50.68 95.6075 50.54 95.1941 50.54C94.7875 50.54 94.4508 50.6767 94.1841 50.95C93.9175 51.2233 93.7841 51.5767 93.7841 52.01C93.7841 52.4433 93.9175 52.8 94.1841 53.08C94.4508 53.36 94.7875 53.5 95.1941 53.5ZM101.578 54.62C101.078 54.62 100.634 54.5133 100.248 54.3C99.8609 54.0867 99.5576 53.7867 99.3376 53.4C99.1176 53.0133 99.0076 52.5667 99.0076 52.06C99.0076 51.5467 99.1142 51.09 99.3276 50.69C99.5476 50.29 99.8476 49.98 100.228 49.76C100.614 49.5333 101.068 49.42 101.588 49.42C102.074 49.42 102.504 49.5267 102.878 49.74C103.251 49.9533 103.541 50.2467 103.748 50.62C103.961 50.9867 104.068 51.3967 104.068 51.85C104.068 51.9233 104.064 52 104.058 52.08C104.058 52.16 104.054 52.2433 104.048 52.33H100.278C100.304 52.7167 100.438 53.02 100.678 53.24C100.924 53.46 101.221 53.57 101.568 53.57C101.828 53.57 102.044 53.5133 102.218 53.4C102.398 53.28 102.531 53.1267 102.618 52.94H103.918C103.824 53.2533 103.668 53.54 103.448 53.8C103.234 54.0533 102.968 54.2533 102.648 54.4C102.334 54.5467 101.978 54.62 101.578 54.62ZM101.588 50.46C101.274 50.46 100.998 50.55 100.758 50.73C100.518 50.9033 100.364 51.17 100.298 51.53H102.768C102.748 51.2033 102.628 50.9433 102.408 50.75C102.188 50.5567 101.914 50.46 101.588 50.46ZM109.237 54.62C108.81 54.62 108.46 54.5533 108.187 54.42C107.914 54.28 107.71 54.0967 107.577 53.87C107.444 53.6433 107.377 53.3933 107.377 53.12C107.377 52.66 107.557 52.2867 107.917 52C108.277 51.7133 108.817 51.57 109.537 51.57H110.797V51.45C110.797 51.11 110.7 50.86 110.507 50.7C110.314 50.54 110.074 50.46 109.787 50.46C109.527 50.46 109.3 50.5233 109.107 50.65C108.914 50.77 108.794 50.95 108.747 51.19H107.497C107.53 50.83 107.65 50.5167 107.857 50.25C108.07 49.9833 108.344 49.78 108.677 49.64C109.01 49.4933 109.384 49.42 109.797 49.42C110.504 49.42 111.06 49.5967 111.467 49.95C111.874 50.3033 112.077 50.8033 112.077 51.45V54.5H110.987L110.867 53.7C110.72 53.9667 110.514 54.1867 110.247 54.36C109.987 54.5333 109.65 54.62 109.237 54.62ZM109.527 53.62C109.894 53.62 110.177 53.5 110.377 53.26C110.584 53.02 110.714 52.7233 110.767 52.37H109.677C109.337 52.37 109.094 52.4333 108.947 52.56C108.8 52.68 108.727 52.83 108.727 53.01C108.727 53.2033 108.8 53.3533 108.947 53.46C109.094 53.5667 109.287 53.62 109.527 53.62ZM119.404 54.5L117.584 49.54H118.924L120.184 53.29L121.444 49.54H122.784L120.954 54.5H119.404ZM124.281 48.77C124.048 48.77 123.855 48.7 123.701 48.56C123.555 48.42 123.481 48.2433 123.481 48.03C123.481 47.8167 123.555 47.6433 123.701 47.51C123.855 47.37 124.048 47.3 124.281 47.3C124.515 47.3 124.705 47.37 124.851 47.51C125.005 47.6433 125.081 47.8167 125.081 48.03C125.081 48.2433 125.005 48.42 124.851 48.56C124.705 48.7 124.515 48.77 124.281 48.77ZM123.641 54.5V49.54H124.921V54.5H123.641ZM128.537 54.62C128.071 54.62 127.654 54.5067 127.287 54.28C126.921 54.0533 126.631 53.7433 126.417 53.35C126.204 52.9567 126.097 52.51 126.097 52.01C126.097 51.51 126.204 51.0667 126.417 50.68C126.631 50.2867 126.921 49.98 127.287 49.76C127.654 49.5333 128.071 49.42 128.537 49.42C128.911 49.42 129.237 49.49 129.517 49.63C129.797 49.77 130.024 49.9667 130.197 50.22V47.3H131.477V54.5H130.337L130.197 53.79C130.037 54.01 129.824 54.2033 129.557 54.37C129.297 54.5367 128.957 54.62 128.537 54.62ZM128.807 53.5C129.221 53.5 129.557 53.3633 129.817 53.09C130.084 52.81 130.217 52.4533 130.217 52.02C130.217 51.5867 130.084 51.2333 129.817 50.96C129.557 50.68 129.221 50.54 128.807 50.54C128.401 50.54 128.064 50.6767 127.797 50.95C127.531 51.2233 127.397 51.5767 127.397 52.01C127.397 52.4433 127.531 52.8 127.797 53.08C128.064 53.36 128.401 53.5 128.807 53.5ZM134.491 54.62C134.064 54.62 133.714 54.5533 133.441 54.42C133.168 54.28 132.964 54.0967 132.831 53.87C132.698 53.6433 132.631 53.3933 132.631 53.12C132.631 52.66 132.811 52.2867 133.171 52C133.531 51.7133 134.071 51.57 134.791 51.57H136.051V51.45C136.051 51.11 135.954 50.86 135.761 50.7C135.568 50.54 135.328 50.46 135.041 50.46C134.781 50.46 134.554 50.5233 134.361 50.65C134.168 50.77 134.048 50.95 134.001 51.19H132.751C132.784 50.83 132.904 50.5167 133.111 50.25C133.324 49.9833 133.598 49.78 133.931 49.64C134.264 49.4933 134.638 49.42 135.051 49.42C135.758 49.42 136.314 49.5967 136.721 49.95C137.128 50.3033 137.331 50.8033 137.331 51.45V54.5H136.241L136.121 53.7C135.974 53.9667 135.768 54.1867 135.501 54.36C135.241 54.5333 134.904 54.62 134.491 54.62ZM134.781 53.62C135.148 53.62 135.431 53.5 135.631 53.26C135.838 53.02 135.968 52.7233 136.021 52.37H134.931C134.591 52.37 134.348 52.4333 134.201 52.56C134.054 52.68 133.981 52.83 133.981 53.01C133.981 53.2033 134.054 53.3533 134.201 53.46C134.348 53.5667 134.541 53.62 134.781 53.62ZM143.345 54.62C142.845 54.62 142.402 54.5133 142.015 54.3C141.628 54.0867 141.325 53.7867 141.105 53.4C140.885 53.0133 140.775 52.5667 140.775 52.06C140.775 51.5467 140.882 51.09 141.095 50.69C141.315 50.29 141.615 49.98 141.995 49.76C142.382 49.5333 142.835 49.42 143.355 49.42C143.842 49.42 144.272 49.5267 144.645 49.74C145.018 49.9533 145.308 50.2467 145.515 50.62C145.728 50.9867 145.835 51.3967 145.835 51.85C145.835 51.9233 145.832 52 145.825 52.08C145.825 52.16 145.822 52.2433 145.815 52.33H142.045C142.072 52.7167 142.205 53.02 142.445 53.24C142.692 53.46 142.988 53.57 143.335 53.57C143.595 53.57 143.812 53.5133 143.985 53.4C144.165 53.28 144.298 53.1267 144.385 52.94H145.685C145.592 53.2533 145.435 53.54 145.215 53.8C145.002 54.0533 144.735 54.2533 144.415 54.4C144.102 54.5467 143.745 54.62 143.345 54.62ZM143.355 50.46C143.042 50.46 142.765 50.55 142.525 50.73C142.285 50.9033 142.132 51.17 142.065 51.53H144.535C144.515 51.2033 144.395 50.9433 144.175 50.75C143.955 50.5567 143.682 50.46 143.355 50.46ZM146.912 54.5V49.54H148.042L148.142 50.38C148.295 50.0867 148.515 49.8533 148.802 49.68C149.095 49.5067 149.438 49.42 149.832 49.42C150.445 49.42 150.922 49.6133 151.262 50C151.602 50.3867 151.772 50.9533 151.772 51.7V54.5H150.492V51.82C150.492 51.3933 150.405 51.0667 150.232 50.84C150.058 50.6133 149.788 50.5 149.422 50.5C149.062 50.5 148.765 50.6267 148.532 50.88C148.305 51.1333 148.192 51.4867 148.192 51.94V54.5H146.912ZM155.426 54.62C154.919 54.62 154.472 54.51 154.086 54.29C153.699 54.07 153.392 53.7633 153.166 53.37C152.946 52.9767 152.836 52.5267 152.836 52.02C152.836 51.5133 152.946 51.0633 153.166 50.67C153.392 50.2767 153.699 49.97 154.086 49.75C154.472 49.53 154.919 49.42 155.426 49.42C156.059 49.42 156.592 49.5867 157.026 49.92C157.459 50.2467 157.736 50.7 157.856 51.28H156.506C156.439 51.04 156.306 50.8533 156.106 50.72C155.912 50.58 155.682 50.51 155.416 50.51C155.062 50.51 154.762 50.6433 154.516 50.91C154.269 51.1767 154.146 51.5467 154.146 52.02C154.146 52.4933 154.269 52.8633 154.516 53.13C154.762 53.3967 155.062 53.53 155.416 53.53C155.682 53.53 155.912 53.4633 156.106 53.33C156.306 53.1967 156.439 53.0067 156.506 52.76H157.856C157.736 53.32 157.459 53.77 157.026 54.11C156.592 54.45 156.059 54.62 155.426 54.62ZM161.372 54.62C160.892 54.62 160.458 54.51 160.072 54.29C159.692 54.07 159.388 53.7667 159.162 53.38C158.942 52.9867 158.832 52.5333 158.832 52.02C158.832 51.5067 158.945 51.0567 159.172 50.67C159.398 50.2767 159.702 49.97 160.082 49.75C160.468 49.53 160.902 49.42 161.382 49.42C161.855 49.42 162.282 49.53 162.662 49.75C163.048 49.97 163.352 50.2767 163.572 50.67C163.798 51.0567 163.912 51.5067 163.912 52.02C163.912 52.5333 163.798 52.9867 163.572 53.38C163.352 53.7667 163.048 54.07 162.662 54.29C162.275 54.51 161.845 54.62 161.372 54.62ZM161.372 53.51C161.705 53.51 161.995 53.3867 162.242 53.14C162.488 52.8867 162.612 52.5133 162.612 52.02C162.612 51.5267 162.488 51.1567 162.242 50.91C161.995 50.6567 161.708 50.53 161.382 50.53C161.042 50.53 160.748 50.6567 160.502 50.91C160.262 51.1567 160.142 51.5267 160.142 52.02C160.142 52.5133 160.262 52.8867 160.502 53.14C160.748 53.3867 161.038 53.51 161.372 53.51ZM165.056 54.5V49.54H166.186L166.286 50.38C166.44 50.0867 166.66 49.8533 166.946 49.68C167.24 49.5067 167.583 49.42 167.976 49.42C168.59 49.42 169.066 49.6133 169.406 50C169.746 50.3867 169.916 50.9533 169.916 51.7V54.5H168.636V51.82C168.636 51.3933 168.55 51.0667 168.376 50.84C168.203 50.6133 167.933 50.5 167.566 50.5C167.206 50.5 166.91 50.6267 166.676 50.88C166.45 51.1333 166.336 51.4867 166.336 51.94V54.5H165.056ZM173.35 54.5C172.83 54.5 172.414 54.3733 172.1 54.12C171.787 53.8667 171.63 53.4167 171.63 52.77V50.61H170.78V49.54H171.63L171.78 48.21H172.91V49.54H174.25V50.61H172.91V52.78C172.91 53.02 172.96 53.1867 173.06 53.28C173.167 53.3667 173.347 53.41 173.6 53.41H174.22V54.5H173.35ZM175.349 54.5V49.54H176.489L176.609 50.47C176.789 50.15 177.033 49.8967 177.339 49.71C177.653 49.5167 178.019 49.42 178.439 49.42V50.77H178.079C177.799 50.77 177.549 50.8133 177.329 50.9C177.109 50.9867 176.936 51.1367 176.809 51.35C176.689 51.5633 176.629 51.86 176.629 52.24V54.5H175.349ZM181.024 54.62C180.597 54.62 180.247 54.5533 179.974 54.42C179.701 54.28 179.497 54.0967 179.364 53.87C179.231 53.6433 179.164 53.3933 179.164 53.12C179.164 52.66 179.344 52.2867 179.704 52C180.064 51.7133 180.604 51.57 181.324 51.57H182.584V51.45C182.584 51.11 182.487 50.86 182.294 50.7C182.101 50.54 181.861 50.46 181.574 50.46C181.314 50.46 181.087 50.5233 180.894 50.65C180.701 50.77 180.581 50.95 180.534 51.19H179.284C179.317 50.83 179.437 50.5167 179.644 50.25C179.857 49.9833 180.131 49.78 180.464 49.64C180.797 49.4933 181.171 49.42 181.584 49.42C182.291 49.42 182.847 49.5967 183.254 49.95C183.661 50.3033 183.864 50.8033 183.864 51.45V54.5H182.774L182.654 53.7C182.507 53.9667 182.301 54.1867 182.034 54.36C181.774 54.5333 181.437 54.62 181.024 54.62ZM181.314 53.62C181.681 53.62 181.964 53.5 182.164 53.26C182.371 53.02 182.501 52.7233 182.554 52.37H181.464C181.124 52.37 180.881 52.4333 180.734 52.56C180.587 52.68 180.514 52.83 180.514 53.01C180.514 53.2033 180.587 53.3533 180.734 53.46C180.881 53.5667 181.074 53.62 181.314 53.62ZM189.178 54.62C188.752 54.62 188.402 54.5533 188.128 54.42C187.855 54.28 187.652 54.0967 187.518 53.87C187.385 53.6433 187.318 53.3933 187.318 53.12C187.318 52.66 187.498 52.2867 187.858 52C188.218 51.7133 188.758 51.57 189.478 51.57H190.738V51.45C190.738 51.11 190.642 50.86 190.448 50.7C190.255 50.54 190.015 50.46 189.728 50.46C189.468 50.46 189.242 50.5233 189.048 50.65C188.855 50.77 188.735 50.95 188.688 51.19H187.438C187.472 50.83 187.592 50.5167 187.798 50.25C188.012 49.9833 188.285 49.78 188.618 49.64C188.952 49.4933 189.325 49.42 189.738 49.42C190.445 49.42 191.002 49.5967 191.408 49.95C191.815 50.3033 192.018 50.8033 192.018 51.45V54.5H190.928L190.808 53.7C190.662 53.9667 190.455 54.1867 190.188 54.36C189.928 54.5333 189.592 54.62 189.178 54.62ZM189.468 53.62C189.835 53.62 190.118 53.5 190.318 53.26C190.525 53.02 190.655 52.7233 190.708 52.37H189.618C189.278 52.37 189.035 52.4333 188.888 52.56C188.742 52.68 188.668 52.83 188.668 53.01C188.668 53.2033 188.742 53.3533 188.888 53.46C189.035 53.5667 189.228 53.62 189.468 53.62ZM197.333 54.62C196.906 54.62 196.556 54.5533 196.283 54.42C196.009 54.28 195.806 54.0967 195.673 53.87C195.539 53.6433 195.473 53.3933 195.473 53.12C195.473 52.66 195.653 52.2867 196.013 52C196.373 51.7133 196.913 51.57 197.633 51.57H198.893V51.45C198.893 51.11 198.796 50.86 198.603 50.7C198.409 50.54 198.169 50.46 197.883 50.46C197.623 50.46 197.396 50.5233 197.203 50.65C197.009 50.77 196.889 50.95 196.843 51.19H195.593C195.626 50.83 195.746 50.5167 195.953 50.25C196.166 49.9833 196.439 49.78 196.773 49.64C197.106 49.4933 197.479 49.42 197.893 49.42C198.599 49.42 199.156 49.5967 199.563 49.95C199.969 50.3033 200.173 50.8033 200.173 51.45V54.5H199.083L198.963 53.7C198.816 53.9667 198.609 54.1867 198.343 54.36C198.083 54.5333 197.746 54.62 197.333 54.62ZM197.623 53.62C197.989 53.62 198.273 53.5 198.473 53.26C198.679 53.02 198.809 52.7233 198.863 52.37H197.773C197.433 52.37 197.189 52.4333 197.043 52.56C196.896 52.68 196.823 52.83 196.823 53.01C196.823 53.2033 196.896 53.3533 197.043 53.46C197.189 53.5667 197.383 53.62 197.623 53.62ZM201.394 54.5V49.54H202.534L202.654 50.47C202.834 50.15 203.077 49.8967 203.384 49.71C203.697 49.5167 204.064 49.42 204.484 49.42V50.77H204.124C203.844 50.77 203.594 50.8133 203.374 50.9C203.154 50.9867 202.981 51.1367 202.854 51.35C202.734 51.5633 202.674 51.86 202.674 52.24V54.5H201.394ZM207.569 54.5C207.049 54.5 206.632 54.3733 206.319 54.12C206.006 53.8667 205.849 53.4167 205.849 52.77V50.61H204.999V49.54H205.849L205.999 48.21H207.129V49.54H208.469V50.61H207.129V52.78C207.129 53.02 207.179 53.1867 207.279 53.28C207.386 53.3667 207.566 53.41 207.819 53.41H208.439V54.5H207.569ZM211.851 54.62C211.351 54.62 210.908 54.5133 210.521 54.3C210.134 54.0867 209.831 53.7867 209.611 53.4C209.391 53.0133 209.281 52.5667 209.281 52.06C209.281 51.5467 209.388 51.09 209.601 50.69C209.821 50.29 210.121 49.98 210.501 49.76C210.888 49.5333 211.341 49.42 211.861 49.42C212.348 49.42 212.778 49.5267 213.151 49.74C213.524 49.9533 213.814 50.2467 214.021 50.62C214.234 50.9867 214.341 51.3967 214.341 51.85C214.341 51.9233 214.338 52 214.331 52.08C214.331 52.16 214.328 52.2433 214.321 52.33H210.551C210.578 52.7167 210.711 53.02 210.951 53.24C211.198 53.46 211.494 53.57 211.841 53.57C212.101 53.57 212.318 53.5133 212.491 53.4C212.671 53.28 212.804 53.1267 212.891 52.94H214.191C214.098 53.2533 213.941 53.54 213.721 53.8C213.508 54.0533 213.241 54.2533 212.921 54.4C212.608 54.5467 212.251 54.62 211.851 54.62ZM211.861 50.46C211.548 50.46 211.271 50.55 211.031 50.73C210.791 50.9033 210.638 51.17 210.571 51.53H213.041C213.021 51.2033 212.901 50.9433 212.681 50.75C212.461 50.5567 212.188 50.46 211.861 50.46ZM215.968 54.57C215.734 54.57 215.541 54.4967 215.388 54.35C215.241 54.2033 215.168 54.0267 215.168 53.82C215.168 53.6067 215.241 53.4267 215.388 53.28C215.541 53.1333 215.734 53.06 215.968 53.06C216.201 53.06 216.391 53.1333 216.538 53.28C216.691 53.4267 216.768 53.6067 216.768 53.82C216.768 54.0267 216.691 54.2033 216.538 54.35C216.391 54.4967 216.201 54.57 215.968 54.57Z" fill="#7A797D"/>
<defs>
<filter id="filter0_d_615_263" x="0" y="0" width="68" height="68" filterUnits="userSpaceOnUse" color-interpolation-filters="sRGB">
<feFlood flood-opacity="0" result="BackgroundImageFix"/>
<feColorMatrix in="SourceAlpha" type="matrix" values="0 0 0 0 0 0 0 0 0 0 0 0 0 0 0 0 0 0 127 0" result="hardAlpha"/>
<feOffset dy="4"/>
<feGaussianBlur stdDeviation="2"/>
<feComposite in2="hardAlpha" operator="out"/>
<feColorMatrix type="matrix" values="0 0 0 0 0 0 0 0 0 0 0 0 0 0 0 0 0 0 0.25 0"/>
<feBlend mode="normal" in2="BackgroundImageFix" result="effect1_dropShadow_615_263"/>
<feBlend mode="normal" in="SourceGraphic" in2="effect1_dropShadow_615_263" result="shape"/>
</filter>
</defs>
</svg>
