<svg width="108" height="108" viewBox="0 0 108 108" fill="none" xmlns="http://www.w3.org/2000/svg">
<g filter="url(#filter0_d_526_256)">
<circle cx="54" cy="50" r="50" fill="white"/>
</g>
<path d="M52.123 72C51.8496 70.8607 51.2344 70.2454 50.2773 70.1543H46.6543V53.8848L49.3203 51.4922L63.334 72.0684L75.2969 72C75.0234 70.8607 74.4082 70.2454 73.4512 70.1543H72.4258L55.3359 45.9551L66.3418 35.9062C68.2103 34.1289 69.623 33.1491 70.5801 32.9668C70.9447 32.8757 71.2865 32.8301 71.6055 32.8301C72.7448 32.4655 73.36 31.8503 73.4512 30.9844H60.873V32.8301H66.3418L46.6543 50.7402V32.8301H52.123V30.9844H32.7773V32.8301H38.2461V70.1543H32.7773V72H52.123Z" fill="#455470"/>
<path d="M52.123 72C51.8496 70.8607 51.2344 70.2454 50.2773 70.1543H46.6543V53.8848L49.3203 51.4922L63.334 72.0684L75.2969 72C75.0234 70.8607 74.4082 70.2454 73.4512 70.1543H72.4258L55.3359 45.9551L66.3418 35.9062C68.2103 34.1289 69.623 33.1491 70.5801 32.9668C70.9447 32.8757 71.2865 32.8301 71.6055 32.8301C72.7448 32.4655 73.36 31.8503 73.4512 30.9844H60.873V32.8301H66.3418L46.6543 50.7402V32.8301H52.123V30.9844H32.7773V32.8301H38.2461V70.1543H32.7773V72H52.123Z" fill="#455470"/>
<path d="M52.123 72C51.8496 70.8607 51.2344 70.2454 50.2773 70.1543H46.6543V53.8848L49.3203 51.4922L63.334 72.0684L75.2969 72C75.0234 70.8607 74.4082 70.2454 73.4512 70.1543H72.4258L55.3359 45.9551L66.3418 35.9062C68.2103 34.1289 69.623 33.1491 70.5801 32.9668C70.9447 32.8757 71.2865 32.8301 71.6055 32.8301C72.7448 32.4655 73.36 31.8503 73.4512 30.9844H60.873V32.8301H66.3418L46.6543 50.7402V32.8301H52.123V30.9844H32.7773V32.8301H38.2461V70.1543H32.7773V72H52.123Z" fill="#141C39"/>
<defs>
<filter id="filter0_d_526_256" x="0" y="0" width="108" height="108" filterUnits="userSpaceOnUse" color-interpolation-filters="sRGB">
<feFlood flood-opacity="0" result="BackgroundImageFix"/>
<feColorMatrix in="SourceAlpha" type="matrix" values="0 0 0 0 0 0 0 0 0 0 0 0 0 0 0 0 0 0 127 0" result="hardAlpha"/>
<feOffset dy="4"/>
<feGaussianBlur stdDeviation="2"/>
<feComposite in2="hardAlpha" operator="out"/>
<feColorMatrix type="matrix" values="0 0 0 0 0 0 0 0 0 0 0 0 0 0 0 0 0 0 0.25 0"/>
<feBlend mode="normal" in2="BackgroundImageFix" result="effect1_dropShadow_526_256"/>
<feBlend mode="normal" in="SourceGraphic" in2="effect1_dropShadow_526_256" result="shape"/>
</filter>
</defs>
</svg>
